<svg width="108" height="50" viewBox="0 0 108 50" fill="none" xmlns="http://www.w3.org/2000/svg">
<path d="M6.27672 4.49113V10.1738H16.2291V14.1671H6.27672V22H1.30051V0.497886H17.55V4.49113H6.27672ZM40.4857 22L40.455 9.09873L34.1272 19.7269H31.8849L25.5878 9.37519V22H20.9188V0.497886H25.0349L33.0828 13.8599L41.0079 0.497886H45.0933L45.1547 22H40.4857ZM57.3212 22.3686C55.6215 22.3686 53.973 22.1433 52.3757 21.6928C50.7989 21.2218 49.5292 20.6177 48.5668 19.8805L50.2562 16.133C51.1777 16.8088 52.2733 17.3514 53.543 17.761C54.8126 18.1706 56.0823 18.3754 57.3519 18.3754C58.7649 18.3754 59.8093 18.1706 60.4851 17.761C61.1609 17.331 61.4988 16.7678 61.4988 16.0716C61.4988 15.5596 61.294 15.1398 60.8844 14.8122C60.4953 14.464 59.9834 14.1876 59.3485 13.9828C58.7342 13.778 57.8946 13.5527 56.8297 13.307C55.1915 12.9179 53.8501 12.5288 52.8058 12.1397C51.7614 11.7507 50.8603 11.1261 50.1026 10.266C49.3654 9.4059 48.9968 8.25913 48.9968 6.82565C48.9968 5.57648 49.3347 4.45018 50.0105 3.44675C50.6863 2.42284 51.6999 1.61395 53.0515 1.02008C54.4235 0.426213 56.0925 0.129279 58.0584 0.129279C59.4305 0.129279 60.7718 0.293104 62.0824 0.620755C63.393 0.948407 64.5398 1.41941 65.5227 2.03375L63.9869 5.81198C62.0005 4.68568 60.0141 4.12253 58.0277 4.12253C56.6352 4.12253 55.601 4.34779 54.9252 4.79831C54.2699 5.24883 53.9423 5.8427 53.9423 6.57991C53.9423 7.31713 54.3211 7.87004 55.0788 8.23865C55.857 8.58678 57.0345 8.93491 58.6113 9.28303C60.2496 9.67212 61.5909 10.0612 62.6353 10.4503C63.6797 10.8394 64.5705 11.4537 65.3077 12.2933C66.0654 13.1329 66.4442 14.2695 66.4442 15.703C66.4442 16.9316 66.0961 18.0579 65.3998 19.0819C64.7241 20.0853 63.7002 20.8839 62.3281 21.4778C60.9561 22.0717 59.2871 22.3686 57.3212 22.3686Z" fill="white"/>
<path d="M0.984962 45V28.1794H10.7422V29.5592H2.52083V35.8916H10.2248V37.2714H2.52083V43.6202H10.9065V45H0.984962ZM15.8755 37.1153V45H14.4135V32.3846H15.8344V34.3639H15.9658C16.2615 33.7178 16.7214 33.2004 17.3456 32.8116C17.9753 32.4174 18.7528 32.2203 19.6782 32.2203C20.5269 32.2203 21.2715 32.3982 21.9122 32.7541C22.5583 33.1046 23.0593 33.622 23.4152 34.3064C23.7765 34.9909 23.9572 35.8314 23.9572 36.8279V45H22.4953V36.9182C22.4953 35.8834 22.2051 35.0648 21.6247 34.4625C21.0498 33.8602 20.2777 33.559 19.3086 33.559C18.646 33.559 18.0574 33.7014 17.5427 33.9861C17.028 34.2708 16.6201 34.6815 16.319 35.2181C16.0233 35.7492 15.8755 36.3816 15.8755 37.1153ZM32.7761 32.3846V33.6576H26.7559V32.3846H32.7761ZM28.6367 29.3621H30.1069V41.7065C30.1069 42.2322 30.1972 42.6456 30.3779 42.9467C30.5586 43.2424 30.794 43.4532 31.0842 43.5791C31.3744 43.6996 31.6838 43.7598 32.0123 43.7598C32.204 43.7598 32.3682 43.7489 32.5051 43.727C32.642 43.6996 32.7625 43.6722 32.8665 43.6448L33.1786 44.9671C33.0362 45.0219 32.861 45.0712 32.6529 45.115C32.4449 45.1643 32.1875 45.1889 31.8809 45.1889C31.3443 45.1889 30.8269 45.0712 30.3286 44.8357C29.8358 44.6003 29.4306 44.2499 29.1131 43.7844C28.7955 43.319 28.6367 42.7414 28.6367 42.0515V29.3621ZM41.0612 45.2628C39.884 45.2628 38.8655 44.989 38.0059 44.4415C37.1462 43.8885 36.481 43.1247 36.0101 42.15C35.5447 41.1699 35.312 40.042 35.312 38.7662C35.312 37.4959 35.5447 36.3679 36.0101 35.3824C36.481 34.3913 37.1298 33.6165 37.9566 33.058C38.7889 32.4941 39.7498 32.2121 40.8394 32.2121C41.5239 32.2121 42.1837 32.338 42.8188 32.5899C43.454 32.8363 44.0234 33.2168 44.5272 33.7315C45.0364 34.2407 45.4388 34.8841 45.7345 35.6616C46.0302 36.4337 46.178 37.3481 46.178 38.4048V39.1276H36.3222V37.8381H44.6832C44.6832 37.0277 44.5189 36.2995 44.1904 35.6534C43.8674 35.0018 43.4156 34.4871 42.8352 34.1093C42.2603 33.7315 41.595 33.5426 40.8394 33.5426C40.04 33.5426 39.3364 33.7562 38.7286 34.1832C38.1209 34.6103 37.6445 35.1743 37.2996 35.8752C36.9601 36.576 36.7876 37.3426 36.7821 38.1748V38.9469C36.7821 39.9489 36.9546 40.825 37.2996 41.5751C37.65 42.3198 38.1455 42.8974 38.7861 43.3081C39.4268 43.7187 40.1851 43.9241 41.0612 43.9241C41.658 43.9241 42.1809 43.831 42.6299 43.6448C43.0844 43.4587 43.4649 43.2095 43.7715 42.8974C44.0836 42.5798 44.3191 42.2322 44.4779 41.8544L45.8659 42.3061C45.6743 42.8372 45.3594 43.3272 44.9214 43.7762C44.4888 44.2252 43.9468 44.5866 43.2952 44.8604C42.6491 45.1287 41.9044 45.2628 41.0612 45.2628ZM49.3996 45V32.3846H50.8205V34.3229H50.9273C51.1791 33.6877 51.6172 33.1758 52.2414 32.787C52.8711 32.3928 53.5829 32.1956 54.3768 32.1956C54.4973 32.1956 54.6314 32.1984 54.7793 32.2039C54.9271 32.2093 55.0503 32.2148 55.1489 32.2203V33.7069C55.0831 33.6959 54.9682 33.6795 54.8039 33.6576C54.6396 33.6357 54.4617 33.6247 54.27 33.6247C53.613 33.6247 53.0271 33.7644 52.5124 34.0436C52.0032 34.3174 51.6008 34.6979 51.3051 35.1852C51.0094 35.6726 50.8616 36.2283 50.8616 36.8525V45H49.3996ZM57.6436 49.7308V32.3846H59.0645V34.791H59.237C59.4122 34.4132 59.6531 34.0272 59.9597 33.633C60.2663 33.2332 60.6715 32.8965 61.1753 32.6227C61.6845 32.349 62.3251 32.2121 63.0972 32.2121C64.1375 32.2121 65.0464 32.4858 65.8239 33.0334C66.6069 33.5755 67.2147 34.3366 67.6473 35.3167C68.0853 36.2913 68.3043 37.4274 68.3043 38.7251C68.3043 40.0283 68.0853 41.1699 67.6473 42.15C67.2147 43.1301 66.6069 43.894 65.8239 44.4415C65.0464 44.989 64.143 45.2628 63.1136 45.2628C62.3525 45.2628 61.7146 45.1259 61.1999 44.8522C60.6907 44.5784 60.2773 44.2416 59.9597 43.8419C59.6476 43.4368 59.4067 43.0425 59.237 42.6592H59.1055V49.7308H57.6436ZM59.0891 38.7005C59.0891 39.7189 59.2397 40.6224 59.5408 41.4108C59.8475 42.1938 60.2855 42.8098 60.855 43.2588C61.4299 43.7023 62.1253 43.9241 62.9411 43.9241C63.7789 43.9241 64.4852 43.6941 65.0601 43.2342C65.6405 42.7688 66.0813 42.1418 66.3824 41.3533C66.6891 40.5649 66.8424 39.6806 66.8424 38.7005C66.8424 37.7313 66.6918 36.858 66.3906 36.0805C66.095 35.303 65.6569 34.687 65.0765 34.2325C64.4961 33.7726 63.7843 33.5426 62.9411 33.5426C62.1198 33.5426 61.4217 33.7644 60.8467 34.2079C60.2718 34.6459 59.8338 35.2537 59.5326 36.0312C59.237 36.8032 59.0891 37.693 59.0891 38.7005ZM71.5116 45V32.3846H72.9324V34.3229H73.0392C73.2911 33.6877 73.7291 33.1758 74.3533 32.787C74.983 32.3928 75.6948 32.1956 76.4888 32.1956C76.6092 32.1956 76.7434 32.1984 76.8912 32.2039C77.039 32.2093 77.1622 32.2148 77.2608 32.2203V33.7069C77.1951 33.6959 77.0801 33.6795 76.9158 33.6576C76.7516 33.6357 76.5736 33.6247 76.382 33.6247C75.7249 33.6247 75.1391 33.7644 74.6244 34.0436C74.1151 34.3174 73.7127 34.6979 73.417 35.1852C73.1213 35.6726 72.9735 36.2283 72.9735 36.8525V45H71.5116ZM79.772 45V32.3846H81.2421V45H79.772ZM80.5194 30.2163C80.2182 30.2163 79.9609 30.115 79.7473 29.9124C79.5338 29.7043 79.427 29.4552 79.427 29.165C79.427 28.8748 79.5338 28.6284 79.7473 28.4258C79.9609 28.2177 80.2182 28.1137 80.5194 28.1137C80.8205 28.1137 81.0779 28.2177 81.2914 28.4258C81.505 28.6284 81.6117 28.8748 81.6117 29.165C81.6117 29.4552 81.505 29.7043 81.2914 29.9124C81.0779 30.115 80.8205 30.2163 80.5194 30.2163ZM93.5845 35.1524L92.2457 35.5302C92.1143 35.1524 91.9282 34.8102 91.6872 34.5036C91.4463 34.1969 91.1315 33.9533 90.7427 33.7726C90.3595 33.5919 89.8831 33.5015 89.3136 33.5015C88.4595 33.5015 87.7586 33.7041 87.2111 34.1093C86.6635 34.5145 86.3897 35.0374 86.3897 35.678C86.3897 36.2201 86.5759 36.6609 86.9482 37.0004C87.326 37.3344 87.9064 37.5999 88.6894 37.797L90.5949 38.2652C91.6517 38.5225 92.4429 38.9305 92.9685 39.489C93.4996 40.0475 93.7652 40.7483 93.7652 41.5915C93.7652 42.3033 93.5681 42.9358 93.1738 43.4888C92.7796 44.0418 92.2293 44.4771 91.523 44.7947C90.8221 45.1068 90.009 45.2628 89.0837 45.2628C87.8517 45.2628 86.836 44.9863 86.0366 44.4333C85.2372 43.8748 84.7252 43.0699 84.5007 42.0186L85.9052 41.6737C86.0859 42.4238 86.439 42.9905 86.9647 43.3738C87.4958 43.7571 88.1939 43.9487 89.059 43.9487C90.0282 43.9487 90.803 43.7324 91.3834 43.2999C91.9638 42.8618 92.254 42.3143 92.254 41.6572C92.254 41.148 92.0842 40.7209 91.7447 40.376C91.4053 40.0255 90.8906 39.7682 90.2007 39.6039L88.1392 39.1111C87.0441 38.8483 86.2337 38.4322 85.7081 37.8627C85.1824 37.2933 84.9196 36.587 84.9196 35.7437C84.9196 35.0484 85.1085 34.4378 85.4863 33.9122C85.8641 33.3811 86.3843 32.9649 87.0468 32.6638C87.7093 32.3626 88.4649 32.2121 89.3136 32.2121C90.469 32.2121 91.3916 32.4749 92.0815 33.0005C92.7769 33.5207 93.2779 34.238 93.5845 35.1524ZM102.067 45.2628C100.889 45.2628 99.871 44.989 99.0114 44.4415C98.1517 43.8885 97.4864 43.1247 97.0155 42.15C96.5501 41.1699 96.3174 40.042 96.3174 38.7662C96.3174 37.4959 96.5501 36.3679 97.0155 35.3824C97.4864 34.3913 98.1353 33.6165 98.9621 33.058C99.7943 32.4941 100.755 32.2121 101.845 32.2121C102.529 32.2121 103.189 32.338 103.824 32.5899C104.459 32.8363 105.029 33.2168 105.533 33.7315C106.042 34.2407 106.444 34.8841 106.74 35.6616C107.036 36.4337 107.183 37.3481 107.183 38.4048V39.1276H97.3276V37.8381H105.689C105.689 37.0277 105.524 36.2995 105.196 35.6534C104.873 35.0018 104.421 34.4871 103.841 34.1093C103.266 33.7315 102.601 33.5426 101.845 33.5426C101.045 33.5426 100.342 33.7562 99.7341 34.1832C99.1263 34.6103 98.65 35.1743 98.305 35.8752C97.9655 36.576 97.7931 37.3426 97.7876 38.1748V38.9469C97.7876 39.9489 97.9601 40.825 98.305 41.5751C98.6554 42.3198 99.151 42.8974 99.7916 43.3081C100.432 43.7187 101.191 43.9241 102.067 43.9241C102.663 43.9241 103.186 43.831 103.635 43.6448C104.09 43.4587 104.47 43.2095 104.777 42.8974C105.089 42.5798 105.325 42.2322 105.483 41.8544L106.871 42.3061C106.68 42.8372 106.365 43.3272 105.927 43.7762C105.494 44.2252 104.952 44.5866 104.301 44.8604C103.655 45.1287 102.91 45.2628 102.067 45.2628Z" fill="#98A2B3"/>
</svg>
