<svg width="182" height="51" viewBox="0 0 182 51" fill="none" xmlns="http://www.w3.org/2000/svg">
<path d="M24.5742 0.0996094C38.0906 0.0998083 49.0479 11.0579 49.0479 24.5742C49.0476 38.0904 38.0904 49.0477 24.5742 49.0479C11.0578 49.0479 0.099863 38.0905 0.0996094 24.5742C0.0996094 11.0578 11.0576 0.0996094 24.5742 0.0996094Z" fill="white"/>
<path d="M24.5742 0.0996094C38.0906 0.0998083 49.0479 11.0579 49.0479 24.5742C49.0476 38.0904 38.0904 49.0477 24.5742 49.0479C11.0578 49.0479 0.099863 38.0905 0.0996094 24.5742C0.0996094 11.0578 11.0576 0.0996094 24.5742 0.0996094Z" fill="url(#paint0_linear_143_8850)"/>
<path d="M24.5742 0.0996094C38.0906 0.0998083 49.0479 11.0579 49.0479 24.5742C49.0476 38.0904 38.0904 49.0477 24.5742 49.0479C11.0578 49.0479 0.099863 38.0905 0.0996094 24.5742C0.0996094 11.0578 11.0576 0.0996094 24.5742 0.0996094Z" stroke="#D0D5DD" stroke-width="0.2"/>
<path fill-rule="evenodd" clip-rule="evenodd" d="M32.3387 11.618C32.7119 10.2925 31.4256 9.50868 30.2508 10.3456L13.8516 22.0283C12.5776 22.936 12.778 24.7442 14.1526 24.7442H18.471V24.7108H26.8873L20.0296 27.1305L17.0064 37.8706C16.6332 39.1961 17.9194 39.9799 19.0943 39.1429L35.4935 27.4602C36.7676 26.5526 36.567 24.7442 35.1925 24.7442H28.6438L32.3387 11.618Z" fill="url(#paint1_linear_143_8850)"/>
<path d="M67.2767 5.49113V11.1738H77.2291V15.1671H67.2767V23H62.3005V1.49789H78.55V5.49113H67.2767ZM101.486 23L101.455 10.0987L95.1272 20.7269H92.8849L86.5878 10.3752V23H81.9188V1.49789H86.0349L94.0828 14.8599L102.008 1.49789H106.093L106.155 23H101.486ZM118.321 23.3686C116.622 23.3686 114.973 23.1433 113.376 22.6928C111.799 22.2218 110.529 21.6177 109.567 20.8805L111.256 17.133C112.178 17.8088 113.273 18.3514 114.543 18.761C115.813 19.1706 117.082 19.3754 118.352 19.3754C119.765 19.3754 120.809 19.1706 121.485 18.761C122.161 18.331 122.499 17.7678 122.499 17.0716C122.499 16.5596 122.294 16.1398 121.884 15.8122C121.495 15.464 120.983 15.1876 120.349 14.9828C119.734 14.778 118.895 14.5527 117.83 14.307C116.191 13.9179 114.85 13.5288 113.806 13.1397C112.761 12.7507 111.86 12.1261 111.103 11.266C110.365 10.4059 109.997 9.25913 109.997 7.82565C109.997 6.57648 110.335 5.45018 111.01 4.44675C111.686 3.42284 112.7 2.61395 114.051 2.02008C115.424 1.42621 117.093 1.12928 119.058 1.12928C120.43 1.12928 121.772 1.2931 123.082 1.62076C124.393 1.94841 125.54 2.41941 126.523 3.03375L124.987 6.81198C123 5.68568 121.014 5.12253 119.028 5.12253C117.635 5.12253 116.601 5.34779 115.925 5.79831C115.27 6.24883 114.942 6.8427 114.942 7.57991C114.942 8.31713 115.321 8.87004 116.079 9.23865C116.857 9.58678 118.035 9.93491 119.611 10.283C121.25 10.6721 122.591 11.0612 123.635 11.4503C124.68 11.8394 125.57 12.4537 126.308 13.2933C127.065 14.1329 127.444 15.2695 127.444 16.703C127.444 17.9316 127.096 19.0579 126.4 20.0819C125.724 21.0853 124.7 21.8839 123.328 22.4778C121.956 23.0717 120.287 23.3686 118.321 23.3686Z" fill="white"/>
<path d="M61.985 46V29.1794H71.7422V30.5592H63.5208V36.8916H71.2248V38.2714H63.5208V44.6202H71.9065V46H61.985ZM76.8755 38.1153V46H75.4135V33.3846H76.8344V35.3639H76.9658C77.2615 34.7178 77.7214 34.2004 78.3456 33.8116C78.9753 33.4174 79.7528 33.2203 80.6782 33.2203C81.5269 33.2203 82.2715 33.3982 82.9122 33.7541C83.5583 34.1046 84.0593 34.622 84.4152 35.3064C84.7765 35.9909 84.9572 36.8314 84.9572 37.8279V46H83.4953V37.9182C83.4953 36.8834 83.2051 36.0648 82.6247 35.4625C82.0498 34.8602 81.2777 34.559 80.3086 34.559C79.646 34.559 79.0574 34.7014 78.5427 34.9861C78.028 35.2708 77.6201 35.6815 77.319 36.2181C77.0233 36.7492 76.8755 37.3816 76.8755 38.1153ZM93.7761 33.3846V34.6576H87.7559V33.3846H93.7761ZM89.6367 30.3621H91.1069V42.7065C91.1069 43.2322 91.1972 43.6456 91.3779 43.9467C91.5586 44.2424 91.794 44.4532 92.0842 44.5791C92.3744 44.6996 92.6838 44.7598 93.0123 44.7598C93.204 44.7598 93.3682 44.7489 93.5051 44.727C93.642 44.6996 93.7625 44.6722 93.8665 44.6448L94.1786 45.9671C94.0362 46.0219 93.861 46.0712 93.6529 46.115C93.4449 46.1643 93.1875 46.1889 92.8809 46.1889C92.3443 46.1889 91.8269 46.0712 91.3286 45.8357C90.8358 45.6003 90.4306 45.2499 90.1131 44.7844C89.7955 44.319 89.6367 43.7414 89.6367 43.0515V30.3621ZM102.061 46.2628C100.884 46.2628 99.8655 45.989 99.0059 45.4415C98.1462 44.8885 97.481 44.1247 97.0101 43.15C96.5447 42.1699 96.312 41.042 96.312 39.7662C96.312 38.4959 96.5447 37.3679 97.0101 36.3824C97.481 35.3913 98.1298 34.6165 98.9566 34.058C99.7889 33.4941 100.75 33.2121 101.839 33.2121C102.524 33.2121 103.184 33.338 103.819 33.5899C104.454 33.8363 105.023 34.2168 105.527 34.7315C106.036 35.2407 106.439 35.8841 106.734 36.6616C107.03 37.4337 107.178 38.3481 107.178 39.4048V40.1276H97.3222V38.8381H105.683C105.683 38.0277 105.519 37.2995 105.19 36.6534C104.867 36.0018 104.416 35.4871 103.835 35.1093C103.26 34.7315 102.595 34.5426 101.839 34.5426C101.04 34.5426 100.336 34.7562 99.7286 35.1832C99.1209 35.6103 98.6445 36.1743 98.2996 36.8752C97.9601 37.576 97.7876 38.3426 97.7821 39.1748V39.9469C97.7821 40.9489 97.9546 41.825 98.2996 42.5751C98.65 43.3198 99.1455 43.8974 99.7861 44.3081C100.427 44.7187 101.185 44.9241 102.061 44.9241C102.658 44.9241 103.181 44.831 103.63 44.6448C104.084 44.4587 104.465 44.2095 104.772 43.8974C105.084 43.5798 105.319 43.2322 105.478 42.8544L106.866 43.3061C106.674 43.8372 106.359 44.3272 105.921 44.7762C105.489 45.2252 104.947 45.5866 104.295 45.8604C103.649 46.1287 102.904 46.2628 102.061 46.2628ZM110.4 46V33.3846H111.821V35.3229H111.927C112.179 34.6877 112.617 34.1758 113.241 33.787C113.871 33.3928 114.583 33.1956 115.377 33.1956C115.497 33.1956 115.631 33.1984 115.779 33.2039C115.927 33.2093 116.05 33.2148 116.149 33.2203V34.7069C116.083 34.6959 115.968 34.6795 115.804 34.6576C115.64 34.6357 115.462 34.6247 115.27 34.6247C114.613 34.6247 114.027 34.7644 113.512 35.0436C113.003 35.3174 112.601 35.6979 112.305 36.1852C112.009 36.6726 111.862 37.2283 111.862 37.8525V46H110.4ZM118.644 50.7308V33.3846H120.064V35.791H120.237C120.412 35.4132 120.653 35.0272 120.96 34.633C121.266 34.2332 121.672 33.8965 122.175 33.6227C122.684 33.349 123.325 33.2121 124.097 33.2121C125.137 33.2121 126.046 33.4858 126.824 34.0334C127.607 34.5755 128.215 35.3366 128.647 36.3167C129.085 37.2913 129.304 38.4274 129.304 39.7251C129.304 41.0283 129.085 42.1699 128.647 43.15C128.215 44.1301 127.607 44.894 126.824 45.4415C126.046 45.989 125.143 46.2628 124.114 46.2628C123.352 46.2628 122.715 46.1259 122.2 45.8522C121.691 45.5784 121.277 45.2416 120.96 44.8419C120.648 44.4368 120.407 44.0425 120.237 43.6592H120.106V50.7308H118.644ZM120.089 39.7005C120.089 40.7189 120.24 41.6224 120.541 42.4108C120.847 43.1938 121.286 43.8098 121.855 44.2588C122.43 44.7023 123.125 44.9241 123.941 44.9241C124.779 44.9241 125.485 44.6941 126.06 44.2342C126.641 43.7688 127.081 43.1418 127.382 42.3533C127.689 41.5649 127.842 40.6806 127.842 39.7005C127.842 38.7313 127.692 37.858 127.391 37.0805C127.095 36.303 126.657 35.687 126.077 35.2325C125.496 34.7726 124.784 34.5426 123.941 34.5426C123.12 34.5426 122.422 34.7644 121.847 35.2079C121.272 35.6459 120.834 36.2537 120.533 37.0312C120.237 37.8032 120.089 38.693 120.089 39.7005ZM132.512 46V33.3846H133.932V35.3229H134.039C134.291 34.6877 134.729 34.1758 135.353 33.787C135.983 33.3928 136.695 33.1956 137.489 33.1956C137.609 33.1956 137.743 33.1984 137.891 33.2039C138.039 33.2093 138.162 33.2148 138.261 33.2203V34.7069C138.195 34.6959 138.08 34.6795 137.916 34.6576C137.752 34.6357 137.574 34.6247 137.382 34.6247C136.725 34.6247 136.139 34.7644 135.624 35.0436C135.115 35.3174 134.713 35.6979 134.417 36.1852C134.121 36.6726 133.974 37.2283 133.974 37.8525V46H132.512ZM140.772 46V33.3846H142.242V46H140.772ZM141.519 31.2163C141.218 31.2163 140.961 31.115 140.747 30.9124C140.534 30.7043 140.427 30.4552 140.427 30.165C140.427 29.8748 140.534 29.6284 140.747 29.4258C140.961 29.2177 141.218 29.1137 141.519 29.1137C141.821 29.1137 142.078 29.2177 142.291 29.4258C142.505 29.6284 142.612 29.8748 142.612 30.165C142.612 30.4552 142.505 30.7043 142.291 30.9124C142.078 31.115 141.821 31.2163 141.519 31.2163ZM154.584 36.1524L153.246 36.5302C153.114 36.1524 152.928 35.8102 152.687 35.5036C152.446 35.1969 152.131 34.9533 151.743 34.7726C151.359 34.5919 150.883 34.5015 150.314 34.5015C149.459 34.5015 148.759 34.7041 148.211 35.1093C147.664 35.5145 147.39 36.0374 147.39 36.678C147.39 37.2201 147.576 37.6609 147.948 38.0004C148.326 38.3344 148.906 38.5999 149.689 38.797L151.595 39.2652C152.652 39.5225 153.443 39.9305 153.969 40.489C154.5 41.0475 154.765 41.7483 154.765 42.5915C154.765 43.3033 154.568 43.9358 154.174 44.4888C153.78 45.0418 153.229 45.4771 152.523 45.7947C151.822 46.1068 151.009 46.2628 150.084 46.2628C148.852 46.2628 147.836 45.9863 147.037 45.4333C146.237 44.8748 145.725 44.0699 145.501 43.0186L146.905 42.6737C147.086 43.4238 147.439 43.9905 147.965 44.3738C148.496 44.7571 149.194 44.9487 150.059 44.9487C151.028 44.9487 151.803 44.7324 152.383 44.2999C152.964 43.8618 153.254 43.3143 153.254 42.6572C153.254 42.148 153.084 41.7209 152.745 41.376C152.405 41.0255 151.891 40.7682 151.201 40.6039L149.139 40.1111C148.044 39.8483 147.234 39.4322 146.708 38.8627C146.182 38.2933 145.92 37.587 145.92 36.7437C145.92 36.0484 146.108 35.4378 146.486 34.9122C146.864 34.3811 147.384 33.9649 148.047 33.6638C148.709 33.3626 149.465 33.2121 150.314 33.2121C151.469 33.2121 152.392 33.4749 153.081 34.0005C153.777 34.5207 154.278 35.238 154.584 36.1524ZM163.067 46.2628C161.889 46.2628 160.871 45.989 160.011 45.4415C159.152 44.8885 158.486 44.1247 158.016 43.15C157.55 42.1699 157.317 41.042 157.317 39.7662C157.317 38.4959 157.55 37.3679 158.016 36.3824C158.486 35.3913 159.135 34.6165 159.962 34.058C160.794 33.4941 161.755 33.2121 162.845 33.2121C163.529 33.2121 164.189 33.338 164.824 33.5899C165.459 33.8363 166.029 34.2168 166.533 34.7315C167.042 35.2407 167.444 35.8841 167.74 36.6616C168.036 37.4337 168.183 38.3481 168.183 39.4048V40.1276H158.328V38.8381H166.689C166.689 38.0277 166.524 37.2995 166.196 36.6534C165.873 36.0018 165.421 35.4871 164.841 35.1093C164.266 34.7315 163.601 34.5426 162.845 34.5426C162.045 34.5426 161.342 34.7562 160.734 35.1832C160.126 35.6103 159.65 36.1743 159.305 36.8752C158.966 37.576 158.793 38.3426 158.788 39.1748V39.9469C158.788 40.9489 158.96 41.825 159.305 42.5751C159.655 43.3198 160.151 43.8974 160.792 44.3081C161.432 44.7187 162.191 44.9241 163.067 44.9241C163.663 44.9241 164.186 44.831 164.635 44.6448C165.09 44.4587 165.47 44.2095 165.777 43.8974C166.089 43.5798 166.325 43.2322 166.483 42.8544L167.871 43.3061C167.68 43.8372 167.365 44.3272 166.927 44.7762C166.494 45.2252 165.952 45.5866 165.301 45.8604C164.655 46.1287 163.91 46.2628 163.067 46.2628Z" fill="#98A2B3"/>
<defs>
<linearGradient id="paint0_linear_143_8850" x1="24.5738" y1="0" x2="24.5738" y2="49.1476" gradientUnits="userSpaceOnUse">
<stop stop-color="white"/>
<stop offset="1" stop-color="#D0D5DD"/>
</linearGradient>
<linearGradient id="paint1_linear_143_8850" x1="18.8363" y1="39.4885" x2="35.4783" y2="13.1386" gradientUnits="userSpaceOnUse">
<stop stop-color="#53389E"/>
<stop offset="1" stop-color="#6941C6"/>
</linearGradient>
</defs>
</svg>
